<?xml version="1.0" encoding="UTF-8" standalone="no"?><svg xmlns="http://www.w3.org/2000/svg" xmlns:xlink="http://www.w3.org/1999/xlink" contentScriptType="application/ecmascript" contentStyleType="text/css" height="320px" preserveAspectRatio="none" style="width:342px;height:320px;" version="1.1" viewBox="0 0 342 320" width="342px" zoomAndPan="magnify"><defs><filter height="300%" id="fj5hbckcizaz2" width="300%" x="-1" y="-1"><feGaussianBlur result="blurOut" stdDeviation="2.0"/><feColorMatrix in="blurOut" result="blurOut2" type="matrix" values="0 0 0 0 0 0 0 0 0 0 0 0 0 0 0 0 0 0 .4 0"/><feOffset dx="4.0" dy="4.0" in="blurOut2" result="blurOut3"/><feBlend in="SourceGraphic" in2="blurOut3" mode="normal"/></filter></defs><g><!--class User--><rect fill="#FEFECE" filter="url(#fj5hbckcizaz2)" height="112.0234" id="User" style="stroke: #A80036; stroke-width: 1.5;" width="111" x="113" y="8"/><ellipse cx="150.5" cy="24" fill="#ADD1B2" rx="11" ry="11" style="stroke: #A80036; stroke-width: 1.0;"/><path d="M153.4688,29.6406 Q152.8906,29.9375 152.25,30.0781 Q151.6094,30.2344 150.9063,30.2344 Q148.4063,30.2344 147.0781,28.5938 Q145.7656,26.9375 145.7656,23.8125 Q145.7656,20.6875 147.0781,19.0313 Q148.4063,17.375 150.9063,17.375 Q151.6094,17.375 152.25,17.5313 Q152.9063,17.6875 153.4688,17.9844 L153.4688,20.7031 Q152.8438,20.125 152.25,19.8594 Q151.6563,19.5781 151.0313,19.5781 Q149.6875,19.5781 149,20.6563 Q148.3125,21.7188 148.3125,23.8125 Q148.3125,25.9063 149,26.9844 Q149.6875,28.0469 151.0313,28.0469 Q151.6563,28.0469 152.25,27.7813 Q152.8438,27.5 153.4688,26.9219 L153.4688,29.6406 Z "/><text fill="#000000" font-family="sans-serif" font-size="12" lengthAdjust="spacingAndGlyphs" textLength="29" x="169.5" y="28.1543">User</text><line style="stroke: #A80036; stroke-width: 1.5;" x1="114" x2="223" y1="40" y2="40"/><text fill="#000000" font-family="sans-serif" font-size="11" lengthAdjust="spacingAndGlyphs" textLength="99" x="119" y="54.2104">String first_name</text><text fill="#000000" font-family="sans-serif" font-size="11" lengthAdjust="spacingAndGlyphs" textLength="97" x="119" y="67.0151">String last_name</text><text fill="#000000" font-family="sans-serif" font-size="11" lengthAdjust="spacingAndGlyphs" textLength="69" x="119" y="79.8198">String email</text><text fill="#000000" font-family="sans-serif" font-size="11" lengthAdjust="spacingAndGlyphs" textLength="94" x="119" y="92.6245">String password</text><line style="stroke: #A80036; stroke-width: 1.5;" x1="114" x2="223" y1="99.2188" y2="99.2188"/><text fill="#000000" font-family="sans-serif" font-size="11" lengthAdjust="spacingAndGlyphs" textLength="86" x="119" y="113.4292">String __str__()</text><!--class UserProfile--><rect fill="#FEFECE" filter="url(#fj5hbckcizaz2)" height="99.2188" id="UserProfile" style="stroke: #A80036; stroke-width: 1.5;" width="145" x="6" y="203.5"/><ellipse cx="41.25" cy="219.5" fill="#ADD1B2" rx="11" ry="11" style="stroke: #A80036; stroke-width: 1.0;"/><path d="M44.2188,225.1406 Q43.6406,225.4375 43,225.5781 Q42.3594,225.7344 41.6563,225.7344 Q39.1563,225.7344 37.8281,224.0938 Q36.5156,222.4375 36.5156,219.3125 Q36.5156,216.1875 37.8281,214.5313 Q39.1563,212.875 41.6563,212.875 Q42.3594,212.875 43,213.0313 Q43.6563,213.1875 44.2188,213.4844 L44.2188,216.2031 Q43.5938,215.625 43,215.3594 Q42.4063,215.0781 41.7813,215.0781 Q40.4375,215.0781 39.75,216.1563 Q39.0625,217.2188 39.0625,219.3125 Q39.0625,221.4063 39.75,222.4844 Q40.4375,223.5469 41.7813,223.5469 Q42.4063,223.5469 43,223.2813 Q43.5938,223 44.2188,222.4219 L44.2188,225.1406 Z "/><text fill="#000000" font-family="sans-serif" font-size="12" lengthAdjust="spacingAndGlyphs" textLength="68" x="59.75" y="223.6543">UserProfile</text><line style="stroke: #A80036; stroke-width: 1.5;" x1="7" x2="150" y1="235.5" y2="235.5"/><text fill="#000000" font-family="sans-serif" font-size="11" lengthAdjust="spacingAndGlyphs" textLength="116" x="12" y="249.7104">Image profile_image</text><text fill="#000000" font-family="sans-serif" font-size="11" lengthAdjust="spacingAndGlyphs" textLength="78" x="12" y="262.5151">Double height</text><line style="stroke: #A80036; stroke-width: 1.5;" x1="7" x2="150" y1="269.1094" y2="269.1094"/><text fill="#000000" font-family="sans-serif" font-size="11" lengthAdjust="spacingAndGlyphs" textLength="86" x="12" y="283.3198">String __str__()</text><text fill="#000000" font-family="sans-serif" font-size="11" lengthAdjust="spacingAndGlyphs" textLength="133" x="12" y="296.1245">String get_absolut_url()</text><!--class Weight--><rect fill="#FEFECE" filter="url(#fj5hbckcizaz2)" height="112.0234" id="Weight" style="stroke: #A80036; stroke-width: 1.5;" width="145" x="186" y="197"/><ellipse cx="232.75" cy="213" fill="#ADD1B2" rx="11" ry="11" style="stroke: #A80036; stroke-width: 1.0;"/><path d="M235.7188,218.6406 Q235.1406,218.9375 234.5,219.0781 Q233.8594,219.2344 233.1563,219.2344 Q230.6563,219.2344 229.3281,217.5938 Q228.0156,215.9375 228.0156,212.8125 Q228.0156,209.6875 229.3281,208.0313 Q230.6563,206.375 233.1563,206.375 Q233.8594,206.375 234.5,206.5313 Q235.1563,206.6875 235.7188,206.9844 L235.7188,209.7031 Q235.0938,209.125 234.5,208.8594 Q233.9063,208.5781 233.2813,208.5781 Q231.9375,208.5781 231.25,209.6563 Q230.5625,210.7188 230.5625,212.8125 Q230.5625,214.9063 231.25,215.9844 Q231.9375,217.0469 233.2813,217.0469 Q233.9063,217.0469 234.5,216.7813 Q235.0938,216.5 235.7188,215.9219 L235.7188,218.6406 Z "/><text fill="#000000" font-family="sans-serif" font-size="12" lengthAdjust="spacingAndGlyphs" textLength="43" x="253.25" y="217.1543">Weight</text><line style="stroke: #A80036; stroke-width: 1.5;" x1="187" x2="330" y1="229" y2="229"/><text fill="#000000" font-family="sans-serif" font-size="11" lengthAdjust="spacingAndGlyphs" textLength="116" x="192" y="243.2104">Double weight_value</text><text fill="#000000" font-family="sans-serif" font-size="11" lengthAdjust="spacingAndGlyphs" textLength="118" x="192" y="256.0151">DateTime created_at</text><text fill="#000000" font-family="sans-serif" font-size="11" lengthAdjust="spacingAndGlyphs" textLength="83" x="192" y="268.8198">User insert_by</text><line style="stroke: #A80036; stroke-width: 1.5;" x1="187" x2="330" y1="275.4141" y2="275.4141"/><text fill="#000000" font-family="sans-serif" font-size="11" lengthAdjust="spacingAndGlyphs" textLength="86" x="192" y="289.6245">String __str__()</text><text fill="#000000" font-family="sans-serif" font-size="11" lengthAdjust="spacingAndGlyphs" textLength="133" x="192" y="302.4292">String get_absolut_url()</text><!--link User to UserProfile--><path d="M141.984,120.095 C132.158,140.51 120.91,163.881 110.638,185.224 " fill="none" id="User-&gt;UserProfile" style="stroke: #A80036; stroke-width: 1.0;"/><polygon fill="none" points="116.903,188.348,101.9225,203.333,104.2885,182.276,116.903,188.348" style="stroke: #A80036; stroke-width: 1.0;"/><text fill="#000000" font-family="sans-serif" font-size="13" lengthAdjust="spacingAndGlyphs" textLength="67" x="127.5" y="163.0669">OneToOne</text><!--link User to Weight--><path d="M195.016,120.095 C204.814,140.453 216.027,163.751 226.276,185.046 " fill="none" id="User-&gt;Weight" style="stroke: #A80036; stroke-width: 1.0;"/><polygon fill="#A80036" points="232.018,196.976,233.0206,189.8349,226.8145,186.1629,225.8119,193.3039,232.018,196.976" style="stroke: #A80036; stroke-width: 1.0;"/><text fill="#000000" font-family="sans-serif" font-size="13" lengthAdjust="spacingAndGlyphs" textLength="75" x="216.5" y="163.0669">OneToMany</text><!--
@startuml

User - -|> UserProfile : OneToOne
User - -*  Weight : OneToMany

class Weight {
    Double weight_value
    DateTime created_at
    User insert_by

    String __str__()
    String get_absolut_url()
}

class User {
    String first_name
    String last_name
    String email
    String password

    String __str__()
}

class UserProfile {
    Image profile_image
    Double height

    String __str__()
    String get_absolut_url()
}

@enduml

PlantUML version 1.2019.09(Mon Aug 26 13:19:51 BRT 2019)
(GPL source distribution)
Java Runtime: OpenJDK Runtime Environment
JVM: OpenJDK 64-Bit Server VM
Java Version: 1.8.0_242-8u242-b08-0ubuntu3~16.04-b08
Operating System: Linux
OS Version: 4.15.0-88-generic
Default Encoding: UTF-8
Language: pt
Country: BR
--></g></svg>